<svg xmlns="http://www.w3.org/2000/svg" width="151" height="131.936"><path fill="#fff" d="M132.42 23.475c-.081-13.6-11.172-24.556-24.771-24.475-7.633.044-14.433 3.56-18.919 9.04l34.875 34.464c5.425-4.553 8.859-11.394 8.815-19.029z"/><path fill="#fff" d="M8.726 42.904l34.492-34.904c-4.548-5.241-11.257-8.55-18.74-8.506-13.601.081-24.559 11.171-24.478 24.771.045 7.485 3.433 14.152 8.726 18.639z"/><path fill="#fff" d="M116.81 104.492c6.173-9.514 9.743-20.866 9.67-33.054-.198-33.086-27.083-59.777-60.127-59.777h-.367c-33.212.198-59.978 27.286-59.779 60.494.075 12.714 4.101 24.472 10.889 34.144l-12.434 12.583c-1.61 1.632-1.596 4.253.03 5.865.812.798 1.867 1.194 2.92 1.194 1.069 0 2.138-.409 2.949-1.228l11.786-11.932c10.984 11.782 26.632 19.153 43.988 19.153l.366-.004c18.017-.105 34.125-8.137 45.073-20.753l12.86 12.705c.806.798 1.858 1.199 2.911 1.199 1.069 0 2.139-.413 2.951-1.231 1.613-1.628 1.595-4.261-.032-5.869l-13.654-13.489zm-50.164 17.072l-.312.004c-27.276 0-49.597-22.195-49.759-49.474-.079-13.293 5.022-25.82 14.368-35.277 9.344-9.453 21.811-14.706 35.097-14.787h.314c27.271 0 49.595 22.195 49.757 49.473.079 13.293-5.024 25.82-14.368 35.278-9.343 9.457-21.81 14.706-35.097 14.783z"/><g fill="#fff"><path d="M71.887 79.211v-40.324c0-2.863-2.323-5.188-5.186-5.188s-5.182 2.325-5.182 5.188v40.324"/><path d="M61.519 64.385v40.324c0 2.863 2.323 5.188 5.186 5.188 2.864 0 5.182-2.325 5.182-5.188v-40.324"/></g><g fill="#fff"><path d="M59.729 76.799h40.324c2.863 0 5.188-2.322 5.188-5.187 0-2.863-2.325-5.182-5.188-5.182h-40.324"/><path d="M74.554 66.431h-40.324c-2.863 0-5.188 2.322-5.188 5.187 0 2.863 2.325 5.182 5.188 5.182h40.324"/></g></svg>